<mxfile host="65bd71144e">
    <diagram id="OrUuwx9moJk-XETII3Gm" name="Page-1">
        <mxGraphModel dx="770" dy="413" grid="1" gridSize="10" guides="1" tooltips="1" connect="1" arrows="1" fold="1" page="1" pageScale="1" pageWidth="827" pageHeight="1169" math="0" shadow="0">
            <root>
                <mxCell id="0"/>
                <mxCell id="1" parent="0"/>
                <mxCell id="4" value="" style="edgeStyle=none;html=1;" edge="1" parent="1" source="2" target="3">
                    <mxGeometry relative="1" as="geometry"/>
                </mxCell>
                <mxCell id="2" value="inicio" style="ellipse;whiteSpace=wrap;html=1;fillColor=#FF0080;" vertex="1" parent="1">
                    <mxGeometry x="294" y="80" width="96" height="50" as="geometry"/>
                </mxCell>
                <mxCell id="6" value="" style="edgeStyle=none;html=1;" edge="1" parent="1" source="3" target="5">
                    <mxGeometry relative="1" as="geometry"/>
                </mxCell>
                <mxCell id="3" value="eleccion" style="shape=parallelogram;perimeter=parallelogramPerimeter;whiteSpace=wrap;html=1;fixedSize=1;fillColor=#99FF33;" vertex="1" parent="1">
                    <mxGeometry x="282" y="170" width="120" height="60" as="geometry"/>
                </mxCell>
                <mxCell id="8" value="" style="edgeStyle=none;html=1;" edge="1" parent="1" source="5" target="7">
                    <mxGeometry relative="1" as="geometry"/>
                </mxCell>
                <mxCell id="5" value="X = RANDIT (1-10)" style="whiteSpace=wrap;html=1;fillColor=#FF6666;" vertex="1" parent="1">
                    <mxGeometry x="282" y="270" width="120" height="60" as="geometry"/>
                </mxCell>
                <mxCell id="10" value="" style="edgeStyle=none;html=1;" edge="1" parent="1" source="7">
                    <mxGeometry relative="1" as="geometry">
                        <mxPoint x="537.1428571428571" y="450" as="targetPoint"/>
                        <Array as="points">
                            <mxPoint x="540" y="410"/>
                        </Array>
                    </mxGeometry>
                </mxCell>
                <mxCell id="12" value="" style="edgeStyle=none;html=1;" edge="1" parent="1" source="7" target="11">
                    <mxGeometry relative="1" as="geometry">
                        <Array as="points">
                            <mxPoint x="220" y="410"/>
                        </Array>
                    </mxGeometry>
                </mxCell>
                <mxCell id="7" value="x==ELECCIOON" style="rhombus;whiteSpace=wrap;html=1;fillColor=#FF8000;" vertex="1" parent="1">
                    <mxGeometry x="280" y="370" width="114" height="80" as="geometry"/>
                </mxCell>
                <mxCell id="17" value="" style="edgeStyle=none;html=1;" edge="1" parent="1" source="11" target="16">
                    <mxGeometry relative="1" as="geometry">
                        <Array as="points">
                            <mxPoint x="70" y="470"/>
                        </Array>
                    </mxGeometry>
                </mxCell>
                <mxCell id="20" value="" style="edgeStyle=none;html=1;" edge="1" parent="1" source="11" target="19">
                    <mxGeometry relative="1" as="geometry">
                        <Array as="points">
                            <mxPoint x="340" y="470"/>
                        </Array>
                    </mxGeometry>
                </mxCell>
                <mxCell id="11" value="X &amp;gt; ELECCION" style="rhombus;whiteSpace=wrap;html=1;fillColor=#FF8000;" vertex="1" parent="1">
                    <mxGeometry x="170" y="430" width="100" height="80" as="geometry"/>
                </mxCell>
                <mxCell id="27" value="" style="edgeStyle=none;html=1;" edge="1" parent="1" source="15" target="26">
                    <mxGeometry relative="1" as="geometry"/>
                </mxCell>
                <mxCell id="15" value="numero final" style="rounded=1;whiteSpace=wrap;html=1;fillColor=#CC00CC;" vertex="1" parent="1">
                    <mxGeometry x="480" y="450" width="120" height="60" as="geometry"/>
                </mxCell>
                <mxCell id="22" value="" style="edgeStyle=none;html=1;" edge="1" parent="1" source="16" target="21">
                    <mxGeometry relative="1" as="geometry"/>
                </mxCell>
                <mxCell id="16" value="Numero final" style="whiteSpace=wrap;html=1;fillColor=#FF0000;" vertex="1" parent="1">
                    <mxGeometry x="10" y="525" width="120" height="60" as="geometry"/>
                </mxCell>
                <mxCell id="24" value="" style="edgeStyle=none;html=1;" edge="1" parent="1" source="19" target="23">
                    <mxGeometry relative="1" as="geometry"/>
                </mxCell>
                <mxCell id="19" value="Numero final" style="rounded=0;whiteSpace=wrap;html=1;fillColor=#FF0000;" vertex="1" parent="1">
                    <mxGeometry x="282" y="525" width="120" height="60" as="geometry"/>
                </mxCell>
                <mxCell id="29" value="" style="edgeStyle=none;html=1;entryX=0;entryY=0.5;entryDx=0;entryDy=0;" edge="1" parent="1" source="21" target="25">
                    <mxGeometry relative="1" as="geometry">
                        <mxPoint x="60" y="810" as="targetPoint"/>
                        <Array as="points">
                            <mxPoint x="70" y="800"/>
                        </Array>
                    </mxGeometry>
                </mxCell>
                <mxCell id="21" value="print ( el numero final es menor)" style="whiteSpace=wrap;html=1;fillColor=#FF0000;" vertex="1" parent="1">
                    <mxGeometry x="10" y="640" width="120" height="60" as="geometry"/>
                </mxCell>
                <mxCell id="30" value="" style="edgeStyle=none;html=1;" edge="1" parent="1" source="23" target="25">
                    <mxGeometry relative="1" as="geometry"/>
                </mxCell>
                <mxCell id="23" value="print( el numero final es mayor)" style="shape=document;whiteSpace=wrap;html=1;boundedLbl=1;fillColor=#FF0000;rounded=0;" vertex="1" parent="1">
                    <mxGeometry x="282" y="630" width="120" height="80" as="geometry"/>
                </mxCell>
                <mxCell id="25" value="fin" style="ellipse;whiteSpace=wrap;html=1;fillColor=#FF0080;" vertex="1" parent="1">
                    <mxGeometry x="280" y="760" width="120" height="80" as="geometry"/>
                </mxCell>
                <mxCell id="32" value="" style="edgeStyle=none;html=1;entryX=1;entryY=0.5;entryDx=0;entryDy=0;" edge="1" parent="1" source="26" target="25">
                    <mxGeometry relative="1" as="geometry">
                        <mxPoint x="540" y="750" as="targetPoint"/>
                        <Array as="points">
                            <mxPoint x="540" y="800"/>
                        </Array>
                    </mxGeometry>
                </mxCell>
                <mxCell id="26" value="print ( es correcto )" style="shape=document;whiteSpace=wrap;html=1;boundedLbl=1;fillColor=#FF0000;rounded=1;" vertex="1" parent="1">
                    <mxGeometry x="480" y="550" width="120" height="80" as="geometry"/>
                </mxCell>
            </root>
        </mxGraphModel>
    </diagram>
</mxfile>